<mxfile host="app.diagrams.net" modified="2021-03-31T09:15:35.257Z" agent="5.0 (Macintosh; Intel Mac OS X 10_15_6) AppleWebKit/605.1.15 (KHTML, like Gecko) Version/14.0.3 Safari/605.1.15" etag="rmht1mF0VK9Sa3rjtLaW" version="14.5.3" type="github">
  <diagram name="Page-1" id="929967ad-93f9-6ef4-fab6-5d389245f69c">
    <mxGraphModel dx="989" dy="645" grid="1" gridSize="10" guides="1" tooltips="1" connect="1" arrows="1" fold="1" page="1" pageScale="1.5" pageWidth="1169" pageHeight="826" background="none" math="0" shadow="0">
      <root>
        <mxCell id="0" style=";html=1;" />
        <mxCell id="1" style=";html=1;" parent="0" />
        <mxCell id="04kuM6P4BNsWd7s2vKbk-1" value="" style="swimlane;fontStyle=1;align=center;verticalAlign=top;childLayout=stackLayout;horizontal=1;startSize=26;horizontalStack=0;resizeParent=1;resizeParentMax=0;resizeLast=0;collapsible=1;marginBottom=0;" vertex="1" parent="1">
          <mxGeometry x="40" y="30" width="290" height="210" as="geometry">
            <mxRectangle x="40" y="30" width="50" height="40" as="alternateBounds" />
          </mxGeometry>
        </mxCell>
        <mxCell id="04kuM6P4BNsWd7s2vKbk-5" value="ContextMap" style="text;html=1;strokeColor=none;fillColor=none;align=center;verticalAlign=middle;whiteSpace=wrap;rounded=0;fontStyle=1;fontSize=20;" vertex="1" parent="04kuM6P4BNsWd7s2vKbk-1">
          <mxGeometry y="26" width="290" height="20" as="geometry" />
        </mxCell>
        <mxCell id="04kuM6P4BNsWd7s2vKbk-3" value="" style="line;strokeWidth=1;fillColor=none;align=left;verticalAlign=middle;spacingTop=-1;spacingLeft=3;spacingRight=3;rotatable=0;labelPosition=right;points=[];portConstraint=eastwest;" vertex="1" parent="04kuM6P4BNsWd7s2vKbk-1">
          <mxGeometry y="46" width="290" height="8" as="geometry" />
        </mxCell>
        <mxCell id="04kuM6P4BNsWd7s2vKbk-2" value="Seller, Buyer, Bid, Auction, Auction Item, Order,&#xa;Shipping, User, House fee&#xa;Name, Shipping Address, Credit Card Info,&#xa;Billing AddressWinner&#xa;Auction Item: locked, shipped, successful&#xa;Check out " style="text;strokeColor=none;fillColor=none;align=left;verticalAlign=top;spacingLeft=4;spacingRight=4;overflow=hidden;rotatable=0;points=[[0,0.5],[1,0.5]];portConstraint=eastwest;fontFamily=Helvetica;" vertex="1" parent="04kuM6P4BNsWd7s2vKbk-1">
          <mxGeometry y="54" width="290" height="156" as="geometry" />
        </mxCell>
        <mxCell id="04kuM6P4BNsWd7s2vKbk-61" value="" style="group" vertex="1" connectable="0" parent="1">
          <mxGeometry x="540" y="575" width="422.5" height="280" as="geometry" />
        </mxCell>
        <mxCell id="04kuM6P4BNsWd7s2vKbk-32" value="" style="ellipse;whiteSpace=wrap;html=1;fontFamily=Helvetica;fontSize=20;fillColor=#d5e8d4;strokeColor=#82b366;" vertex="1" parent="04kuM6P4BNsWd7s2vKbk-61">
          <mxGeometry x="17.5" width="405" height="280" as="geometry" />
        </mxCell>
        <mxCell id="04kuM6P4BNsWd7s2vKbk-26" value="AuthSystem" style="ellipse;whiteSpace=wrap;html=1;fontFamily=Helvetica;fontSize=20;" vertex="1" parent="04kuM6P4BNsWd7s2vKbk-61">
          <mxGeometry x="70" y="172.5" width="120" height="80" as="geometry" />
        </mxCell>
        <mxCell id="04kuM6P4BNsWd7s2vKbk-27" value="Shipping" style="ellipse;whiteSpace=wrap;html=1;fontFamily=Helvetica;fontSize=20;" vertex="1" parent="04kuM6P4BNsWd7s2vKbk-61">
          <mxGeometry x="257" y="90" width="120" height="80" as="geometry" />
        </mxCell>
        <mxCell id="04kuM6P4BNsWd7s2vKbk-28" value="Card processing&amp;nbsp;" style="ellipse;whiteSpace=wrap;html=1;fontFamily=Helvetica;fontSize=20;" vertex="1" parent="04kuM6P4BNsWd7s2vKbk-61">
          <mxGeometry x="130" y="92.5" width="120" height="80" as="geometry" />
        </mxCell>
        <mxCell id="04kuM6P4BNsWd7s2vKbk-30" value="Notification" style="ellipse;whiteSpace=wrap;html=1;fontFamily=Helvetica;fontSize=20;" vertex="1" parent="04kuM6P4BNsWd7s2vKbk-61">
          <mxGeometry x="160" y="10" width="120" height="80" as="geometry" />
        </mxCell>
        <mxCell id="04kuM6P4BNsWd7s2vKbk-34" value="Generic context" style="text;html=1;strokeColor=none;fillColor=none;align=center;verticalAlign=middle;whiteSpace=wrap;rounded=0;fontFamily=Helvetica;fontSize=20;" vertex="1" parent="04kuM6P4BNsWd7s2vKbk-61">
          <mxGeometry y="112.5" width="140" height="40" as="geometry" />
        </mxCell>
        <mxCell id="04kuM6P4BNsWd7s2vKbk-62" value="" style="group" vertex="1" connectable="0" parent="1">
          <mxGeometry x="10" y="580" width="380" height="275" as="geometry" />
        </mxCell>
        <mxCell id="04kuM6P4BNsWd7s2vKbk-33" value="" style="ellipse;whiteSpace=wrap;html=1;fontFamily=Helvetica;fontSize=20;fillColor=#dae8fc;strokeColor=#6c8ebf;" vertex="1" parent="04kuM6P4BNsWd7s2vKbk-62">
          <mxGeometry width="380" height="275" as="geometry" />
        </mxCell>
        <mxCell id="04kuM6P4BNsWd7s2vKbk-29" value="House fee" style="ellipse;whiteSpace=wrap;html=1;fontFamily=Helvetica;fontSize=20;" vertex="1" parent="04kuM6P4BNsWd7s2vKbk-62">
          <mxGeometry x="130" y="25" width="120" height="80" as="geometry" />
        </mxCell>
        <mxCell id="04kuM6P4BNsWd7s2vKbk-31" value="History" style="ellipse;whiteSpace=wrap;html=1;fontFamily=Helvetica;fontSize=20;" vertex="1" parent="04kuM6P4BNsWd7s2vKbk-62">
          <mxGeometry x="115" y="175" width="120" height="80" as="geometry" />
        </mxCell>
        <mxCell id="04kuM6P4BNsWd7s2vKbk-35" value="Supporting&lt;br&gt;context" style="text;html=1;strokeColor=none;fillColor=none;align=center;verticalAlign=middle;whiteSpace=wrap;rounded=0;fontFamily=Helvetica;fontSize=20;" vertex="1" parent="04kuM6P4BNsWd7s2vKbk-62">
          <mxGeometry x="60" y="127.5" width="40" height="20" as="geometry" />
        </mxCell>
        <mxCell id="04kuM6P4BNsWd7s2vKbk-63" value="" style="group" vertex="1" connectable="0" parent="1">
          <mxGeometry x="270" y="260" width="420" height="380" as="geometry" />
        </mxCell>
        <mxCell id="04kuM6P4BNsWd7s2vKbk-25" value="Core domain&lt;br&gt;&lt;br&gt;&lt;br&gt;&lt;br&gt;&lt;br&gt;&lt;br&gt;&lt;br&gt;&lt;br&gt;&lt;br&gt;&lt;br&gt;" style="ellipse;whiteSpace=wrap;html=1;fontFamily=Helvetica;fontSize=20;fillColor=#f8cecc;strokeColor=#b85450;" vertex="1" parent="04kuM6P4BNsWd7s2vKbk-63">
          <mxGeometry width="420" height="380" as="geometry" />
        </mxCell>
        <mxCell id="04kuM6P4BNsWd7s2vKbk-36" value="Check out&amp;nbsp;" style="ellipse;whiteSpace=wrap;html=1;fontFamily=Helvetica;fontSize=20;" vertex="1" parent="04kuM6P4BNsWd7s2vKbk-63">
          <mxGeometry x="270" y="220" width="120" height="80" as="geometry" />
        </mxCell>
        <mxCell id="04kuM6P4BNsWd7s2vKbk-37" value="Auction" style="ellipse;whiteSpace=wrap;html=1;fontFamily=Helvetica;fontSize=20;" vertex="1" parent="04kuM6P4BNsWd7s2vKbk-63">
          <mxGeometry x="160" y="110" width="110" height="80" as="geometry" />
        </mxCell>
        <mxCell id="04kuM6P4BNsWd7s2vKbk-38" value="Registration" style="ellipse;whiteSpace=wrap;html=1;fontFamily=Helvetica;fontSize=20;" vertex="1" parent="04kuM6P4BNsWd7s2vKbk-63">
          <mxGeometry x="40" y="220" width="120" height="80" as="geometry" />
        </mxCell>
        <mxCell id="04kuM6P4BNsWd7s2vKbk-53" value="" style="endArrow=classic;html=1;fontFamily=Helvetica;fontSize=20;entryX=0.575;entryY=-0.025;entryDx=0;entryDy=0;entryPerimeter=0;exitX=0;exitY=0.5;exitDx=0;exitDy=0;" edge="1" parent="04kuM6P4BNsWd7s2vKbk-63">
          <mxGeometry relative="1" as="geometry">
            <mxPoint x="160" y="150" as="sourcePoint" />
            <mxPoint x="109" y="218" as="targetPoint" />
            <Array as="points">
              <mxPoint x="120" y="160" />
            </Array>
          </mxGeometry>
        </mxCell>
        <mxCell id="04kuM6P4BNsWd7s2vKbk-55" value="&lt;span style=&quot;text-align: right&quot;&gt;Downstream&lt;/span&gt;" style="edgeLabel;resizable=0;html=1;align=left;verticalAlign=bottom;" connectable="0" vertex="1" parent="04kuM6P4BNsWd7s2vKbk-53">
          <mxGeometry x="-1" relative="1" as="geometry">
            <mxPoint x="-70" as="offset" />
          </mxGeometry>
        </mxCell>
        <mxCell id="04kuM6P4BNsWd7s2vKbk-57" value="" style="endArrow=classic;html=1;fontFamily=Helvetica;fontSize=20;entryX=0.392;entryY=0.038;entryDx=0;entryDy=0;entryPerimeter=0;exitX=1;exitY=0.5;exitDx=0;exitDy=0;" edge="1" parent="04kuM6P4BNsWd7s2vKbk-63" source="04kuM6P4BNsWd7s2vKbk-37" target="04kuM6P4BNsWd7s2vKbk-36">
          <mxGeometry relative="1" as="geometry">
            <mxPoint x="341" y="160" as="sourcePoint" />
            <mxPoint x="290" y="228" as="targetPoint" />
            <Array as="points">
              <mxPoint x="301" y="170" />
            </Array>
          </mxGeometry>
        </mxCell>
        <mxCell id="04kuM6P4BNsWd7s2vKbk-58" value="Upstream" style="edgeLabel;resizable=0;html=1;align=left;verticalAlign=bottom;" connectable="0" vertex="1" parent="04kuM6P4BNsWd7s2vKbk-57">
          <mxGeometry x="-1" relative="1" as="geometry">
            <mxPoint x="10" as="offset" />
          </mxGeometry>
        </mxCell>
        <mxCell id="04kuM6P4BNsWd7s2vKbk-59" value="Downstream" style="edgeLabel;resizable=0;html=1;align=right;verticalAlign=bottom;" connectable="0" vertex="1" parent="04kuM6P4BNsWd7s2vKbk-57">
          <mxGeometry x="1" relative="1" as="geometry">
            <mxPoint x="-6.949999999999999" y="-2.75" as="offset" />
          </mxGeometry>
        </mxCell>
        <mxCell id="04kuM6P4BNsWd7s2vKbk-60" value="Upstream" style="edgeLabel;resizable=0;html=1;align=left;verticalAlign=bottom;" connectable="0" vertex="1" parent="04kuM6P4BNsWd7s2vKbk-63">
          <mxGeometry x="60" y="200" as="geometry" />
        </mxCell>
        <mxCell id="04kuM6P4BNsWd7s2vKbk-71" value="" style="endArrow=classic;html=1;fontFamily=Helvetica;fontSize=20;exitX=0.425;exitY=1.038;exitDx=0;exitDy=0;exitPerimeter=0;" edge="1" parent="1" source="04kuM6P4BNsWd7s2vKbk-38" target="04kuM6P4BNsWd7s2vKbk-29">
          <mxGeometry relative="1" as="geometry">
            <mxPoint x="390" y="610" as="sourcePoint" />
            <mxPoint x="550" y="610" as="targetPoint" />
          </mxGeometry>
        </mxCell>
        <mxCell id="04kuM6P4BNsWd7s2vKbk-73" value="Upstream" style="edgeLabel;resizable=0;html=1;align=left;verticalAlign=bottom;" connectable="0" vertex="1" parent="04kuM6P4BNsWd7s2vKbk-71">
          <mxGeometry x="-1" relative="1" as="geometry" />
        </mxCell>
        <mxCell id="04kuM6P4BNsWd7s2vKbk-74" value="Downstream" style="edgeLabel;resizable=0;html=1;align=right;verticalAlign=bottom;" connectable="0" vertex="1" parent="04kuM6P4BNsWd7s2vKbk-71">
          <mxGeometry x="1" relative="1" as="geometry" />
        </mxCell>
        <mxCell id="04kuM6P4BNsWd7s2vKbk-75" value="" style="endArrow=classic;html=1;fontFamily=Helvetica;fontSize=20;entryX=1;entryY=0;entryDx=0;entryDy=0;exitX=0.633;exitY=1.013;exitDx=0;exitDy=0;exitPerimeter=0;" edge="1" parent="1" source="04kuM6P4BNsWd7s2vKbk-38" target="04kuM6P4BNsWd7s2vKbk-31">
          <mxGeometry relative="1" as="geometry">
            <mxPoint x="390" y="550" as="sourcePoint" />
            <mxPoint x="257.8926983636984" y="630.9049157300647" as="targetPoint" />
          </mxGeometry>
        </mxCell>
        <mxCell id="04kuM6P4BNsWd7s2vKbk-76" value="Upstream" style="edgeLabel;resizable=0;html=1;align=left;verticalAlign=bottom;" connectable="0" vertex="1" parent="04kuM6P4BNsWd7s2vKbk-75">
          <mxGeometry x="-1" relative="1" as="geometry">
            <mxPoint y="16.96" as="offset" />
          </mxGeometry>
        </mxCell>
        <mxCell id="04kuM6P4BNsWd7s2vKbk-77" value="Downstream" style="edgeLabel;resizable=0;html=1;align=right;verticalAlign=bottom;" connectable="0" vertex="1" parent="04kuM6P4BNsWd7s2vKbk-75">
          <mxGeometry x="1" relative="1" as="geometry">
            <mxPoint x="-17.48" y="-16.64" as="offset" />
          </mxGeometry>
        </mxCell>
        <mxCell id="04kuM6P4BNsWd7s2vKbk-90" value="" style="endArrow=classic;html=1;fontFamily=Helvetica;fontSize=20;exitX=0.5;exitY=1;exitDx=0;exitDy=0;" edge="1" parent="1" source="04kuM6P4BNsWd7s2vKbk-37">
          <mxGeometry relative="1" as="geometry">
            <mxPoint x="390" y="610" as="sourcePoint" />
            <mxPoint x="200" y="760" as="targetPoint" />
            <Array as="points">
              <mxPoint x="440" y="670" />
            </Array>
          </mxGeometry>
        </mxCell>
        <mxCell id="04kuM6P4BNsWd7s2vKbk-98" style="edgeStyle=orthogonalEdgeStyle;rounded=0;orthogonalLoop=1;jettySize=auto;html=1;exitX=0.5;exitY=1;exitDx=0;exitDy=0;entryX=0.992;entryY=0.338;entryDx=0;entryDy=0;entryPerimeter=0;fontFamily=Helvetica;fontSize=20;" edge="1" parent="1" source="04kuM6P4BNsWd7s2vKbk-36" target="04kuM6P4BNsWd7s2vKbk-31">
          <mxGeometry relative="1" as="geometry">
            <Array as="points">
              <mxPoint x="530" y="560" />
              <mxPoint x="530" y="782" />
            </Array>
          </mxGeometry>
        </mxCell>
        <mxCell id="04kuM6P4BNsWd7s2vKbk-100" value="" style="endArrow=classic;html=1;fontFamily=Helvetica;fontSize=20;exitX=0.558;exitY=1.013;exitDx=0;exitDy=0;exitPerimeter=0;entryX=1;entryY=0;entryDx=0;entryDy=0;" edge="1" parent="1" source="04kuM6P4BNsWd7s2vKbk-36" target="04kuM6P4BNsWd7s2vKbk-34">
          <mxGeometry relative="1" as="geometry">
            <mxPoint x="390" y="610" as="sourcePoint" />
            <mxPoint x="550" y="610" as="targetPoint" />
          </mxGeometry>
        </mxCell>
        <mxCell id="04kuM6P4BNsWd7s2vKbk-104" style="edgeStyle=orthogonalEdgeStyle;rounded=0;orthogonalLoop=1;jettySize=auto;html=1;exitX=0.5;exitY=0;exitDx=0;exitDy=0;entryX=1;entryY=0.5;entryDx=0;entryDy=0;fontFamily=Helvetica;fontSize=20;" edge="1" parent="1" source="04kuM6P4BNsWd7s2vKbk-27" target="04kuM6P4BNsWd7s2vKbk-36">
          <mxGeometry relative="1" as="geometry" />
        </mxCell>
        <mxCell id="04kuM6P4BNsWd7s2vKbk-105" style="edgeStyle=orthogonalEdgeStyle;rounded=0;orthogonalLoop=1;jettySize=auto;html=1;exitX=1;exitY=1;exitDx=0;exitDy=0;entryX=0.083;entryY=0.238;entryDx=0;entryDy=0;entryPerimeter=0;fontFamily=Helvetica;fontSize=20;" edge="1" parent="1" source="04kuM6P4BNsWd7s2vKbk-36" target="04kuM6P4BNsWd7s2vKbk-30">
          <mxGeometry relative="1" as="geometry" />
        </mxCell>
        <mxCell id="04kuM6P4BNsWd7s2vKbk-106" style="edgeStyle=orthogonalEdgeStyle;rounded=0;orthogonalLoop=1;jettySize=auto;html=1;exitX=0;exitY=0.5;exitDx=0;exitDy=0;fontFamily=Helvetica;fontSize=20;" edge="1" parent="1" source="04kuM6P4BNsWd7s2vKbk-26" target="04kuM6P4BNsWd7s2vKbk-31">
          <mxGeometry relative="1" as="geometry" />
        </mxCell>
      </root>
    </mxGraphModel>
  </diagram>
</mxfile>
